<?xml version="1.0" encoding="utf-8"?>
<!-- Generator: Adobe Illustrator 26.5.0, SVG Export Plug-In . SVG Version: 6.00 Build 0)  -->
<svg version="1.1" id="Слой_1" xmlns="http://www.w3.org/2000/svg" xmlns:xlink="http://www.w3.org/1999/xlink" x="0px" y="0px"
	 viewBox="0 0 563.6 145.4" style="enable-background:new 0 0 563.6 145.4;" xml:space="preserve">
<style type="text/css">
	.st0{fill:#F3F3F3;}
	.st1{fill:none;}
	.st2{fill:#525252;}
	.st3{fill:#1D1D1B;}
	.st4{fill:#C6C6C6;}
	.st5{fill:#FFFFFF;}
	.st6{fill:#FDFDFC;}
	.st7{fill:#27284B;}
	.st8{fill:#E95351;}
	.st9{fill:url(#SVGID_1_);}
	.st10{fill:url(#SVGID_00000146482241283404249330000006177336167422408609_);}
	.st11{fill:#574595;}
	.st12{fill:url(#SVGID_00000079455895923517662700000006073475938403204518_);}
	.st13{fill:url(#SVGID_00000083798906766308505580000010667337765246678457_);}
	.st14{fill:url(#SVGID_00000171690729838156809810000002146411956144832650_);}
	.st15{fill:#A41077;}
	.st16{fill:url(#SVGID_00000034778620040655032900000004296733776158682536_);}
	.st17{fill:url(#SVGID_00000109720300609442943690000004494722212420658097_);}
	.st18{fill:url(#SVGID_00000077312327541031701110000004074950815874743430_);}
	.st19{fill:url(#SVGID_00000153666655521810067500000005504535159241272451_);}
	.st20{fill:url(#SVGID_00000124143925493733811530000005788574444498149763_);}
	.st21{fill:url(#SVGID_00000012465731876653804020000002922307551243601540_);}
	.st22{fill:url(#SVGID_00000101069993965901130770000010872917310139046321_);}
	.st23{fill:url(#SVGID_00000049906809129299999950000011829496650320360624_);}
	.st24{fill:url(#SVGID_00000062898115465938556250000010827931415649422270_);}
	.st25{fill:url(#SVGID_00000054255328979779069260000001210190454840629409_);}
	.st26{fill:url(#SVGID_00000096019476052840915150000002667217589211612072_);}
	.st27{fill:url(#SVGID_00000122686414898600569270000013225166504889063060_);}
	.st28{fill:url(#SVGID_00000116211671248694440780000016908969439123700615_);}
	.st29{fill:url(#SVGID_00000121252273524497534790000004350995239264732861_);}
	.st30{fill:url(#SVGID_00000026864648863009669210000008077228481036296351_);}
	.st31{fill:url(#SVGID_00000008124162022315878350000006771801056719312039_);}
	.st32{fill:url(#SVGID_00000087391304314505788520000005074156511546703287_);}
	.st33{fill:url(#SVGID_00000004511887872198354250000002600164173796759711_);}
	.st34{fill:url(#SVGID_00000139985987870343025860000017791694730282579862_);}
	.st35{fill:url(#SVGID_00000000206382259510812380000007850156140552674214_);}
	.st36{fill:url(#SVGID_00000074439613104509539040000008068076607011259014_);}
	.st37{fill:url(#SVGID_00000114038285875992027320000001224272777355990412_);}
	.st38{fill:url(#SVGID_00000121968578297727006870000005644130924801038750_);}
	.st39{fill:url(#SVGID_00000104674150614665275750000006433931629621953699_);}
	.st40{fill:url(#SVGID_00000113340377680879007460000004227501058567769241_);}
	.st41{fill:url(#SVGID_00000147915024316553402120000001054658766690860462_);}
	.st42{fill:url(#SVGID_00000037693184013061607800000016017869391641222535_);}
	.st43{fill:url(#SVGID_00000023243074007302726560000003204702203064253069_);}
	.st44{fill:url(#SVGID_00000088844382545600602300000000927289399452521643_);}
	.st45{fill:url(#SVGID_00000131335088524842813930000011377375792686528936_);}
	.st46{fill:url(#SVGID_00000044898794015138011180000013752518055050519200_);}
	.st47{fill:url(#SVGID_00000024001513810994194520000014961794784853520017_);}
	.st48{fill:url(#SVGID_00000073711077284513870240000010199548164201057467_);}
	.st49{fill:url(#SVGID_00000073687641732772720080000002800665425515430305_);}
	.st50{fill:url(#SVGID_00000062871114046852884410000007950908003595100814_);}
	.st51{fill:url(#SVGID_00000134209987542210493370000010007022505657173150_);}
	.st52{opacity:0.55;}
	.st53{opacity:0.55;fill:#FFFFFF;}
	.st54{fill:url(#SVGID_00000130643201431037580040000015997635777363953814_);}
	.st55{fill:url(#SVGID_00000008148477666711967820000014132103472420887455_);}
	.st56{fill:url(#SVGID_00000022537312149466182930000003873887539120930189_);}
	.st57{fill:url(#SVGID_00000098188862960952602710000011249296673441578123_);}
	.st58{fill:url(#SVGID_00000111907767098923065780000006534670315271613115_);}
	.st59{fill:url(#SVGID_00000174568021552709288250000010736336248993729162_);}
	.st60{fill:url(#SVGID_00000042736570932406640320000014410531017974886569_);}
	.st61{fill:url(#SVGID_00000098917183145644470010000006581766209142690473_);}
	.st62{fill:url(#SVGID_00000127726191208807844390000013208269590822226878_);}
	.st63{fill:url(#SVGID_00000136373743053936827370000017223062809649721505_);}
	.st64{fill:url(#SVGID_00000128444546080527915790000009671062391235979175_);}
	.st65{fill:url(#SVGID_00000169540528369234558120000011349247143248177059_);}
	.st66{fill:url(#SVGID_00000130637628637142443470000000574564999662572985_);}
	.st67{fill:url(#SVGID_00000036953042854349763390000014298290492046242176_);}
	.st68{fill:url(#SVGID_00000057870137345196419610000014519800879045356971_);}
	.st69{fill:url(#SVGID_00000045597259732873179420000010095185248083010197_);}
	.st70{fill:url(#SVGID_00000148643640678974824560000008942256501328683671_);}
	.st71{fill:url(#SVGID_00000099631389358357178230000017699564492997005711_);}
	.st72{fill:url(#SVGID_00000151510925881250251440000017941588907041135504_);}
	.st73{fill:url(#SVGID_00000101070193403807702940000001195938181316524197_);}
	.st74{fill:url(#SVGID_00000034076439724750000710000011536452616932564380_);}
	.st75{fill:url(#SVGID_00000044890990230541321600000009354008253485732242_);}
	.st76{fill:url(#SVGID_00000178168987196176458830000005709593069524731020_);}
	.st77{fill:url(#SVGID_00000134948033931718908680000004658236926270588855_);}
	.st78{fill:url(#SVGID_00000119109701565069925660000005018401761041043338_);}
	.st79{fill:url(#SVGID_00000034804322976410685560000011373880783438611622_);}
	.st80{fill:url(#SVGID_00000032622072545507763300000006173083967345861013_);}
	.st81{fill:url(#SVGID_00000160192942490816854090000017263685710560370577_);}
	.st82{fill:url(#SVGID_00000054246318128371001020000018299154647302532757_);}
	.st83{fill:url(#SVGID_00000117657950531355552840000017111156285991904640_);}
	.st84{fill:url(#SVGID_00000109707811670819354960000016840365684948968341_);}
	.st85{fill:url(#SVGID_00000147198830243744025950000014625688364772521397_);}
	.st86{fill:url(#SVGID_00000028325810255811928870000009788596932113504910_);}
	.st87{fill:url(#SVGID_00000045599749461580658540000008770157122499829657_);}
	.st88{fill:url(#SVGID_00000136383077800472825290000018009102976703888568_);}
	.st89{fill:url(#SVGID_00000036966924903892745270000002511351809662331068_);}
	.st90{fill:url(#SVGID_00000018915323778773448180000010394884503935087249_);}
	.st91{fill:url(#SVGID_00000114070026736179171230000012493104440085881504_);}
	.st92{fill:url(#SVGID_00000008122466476317609380000000276982661652083609_);}
	.st93{fill:url(#SVGID_00000000935617465140511100000014498134448052634025_);}
	.st94{fill:url(#SVGID_00000016075107182135092010000011875749509307133104_);}
	.st95{fill:url(#SVGID_00000100367068495056538620000010598882755678078336_);}
	.st96{fill:url(#SVGID_00000060018106006762209250000009321980222238259848_);}
	.st97{fill:url(#SVGID_00000154424637455624122310000000946136177465318279_);}
	.st98{fill:url(#SVGID_00000095339576835247670240000010849794946699653031_);}
	.st99{fill:url(#SVGID_00000127005410598365616160000016497428334268064663_);}
	.st100{fill:url(#SVGID_00000073707602967088018820000005640439383429757318_);}
	.st101{fill:url(#SVGID_00000004535052214335802030000003030319141054295224_);}
	.st102{fill:url(#SVGID_00000154427901670418474450000006959489617111143325_);}
	.st103{fill:url(#SVGID_00000038374137826533019580000012558793834683710091_);}
	.st104{fill:url(#SVGID_00000008137505968334452350000013914000097903649701_);}
	.st105{fill:url(#SVGID_00000113329186897059420820000002923337871637750165_);}
	.st106{fill:url(#SVGID_00000003104991961305636950000005312507463391815061_);}
	.st107{fill:url(#SVGID_00000089564790709063228000000014988485327021656451_);}
	.st108{fill:url(#SVGID_00000123438807765337629460000009352888625496389020_);}
	.st109{fill:url(#SVGID_00000037660348846960579660000012739431702646817203_);}
</style>
<rect x="2.9" y="27.2" class="st5" width="0.9" height="0"/>
<g>
	<g>
		<path class="st15" d="M196.8,60.3c4,0,7.8,1.6,10.5,3.9l5-6.7c-4.1-3.5-9.5-5.7-15.5-5.7c-13.4,0-23.8,10.4-23.8,23.8
			c0,13.3,10.4,23.8,23.8,23.8c6.1,0,11.5-2.2,15.5-5.7l-4.9-6.8c-3.4,2.7-6.6,4-10.6,4c-8,0-14.8-6.6-14.8-15.3
			C182,66.9,188.8,60.3,196.8,60.3z"/>
		<linearGradient id="SVGID_1_" gradientUnits="userSpaceOnUse" x1="165.5817" y1="75.5773" x2="492.9115" y2="75.5773">
			<stop  offset="3.724372e-02" style="stop-color:#A41077"/>
			<stop  offset="1" style="stop-color:#4E4897"/>
		</linearGradient>
		<path class="st9" d="M196.8,60.3c4,0,7.8,1.6,10.5,3.9l5-6.7c-4.1-3.5-9.5-5.7-15.5-5.7c-13.4,0-23.8,10.4-23.8,23.8
			c0,13.3,10.4,23.8,23.8,23.8c6.1,0,11.5-2.2,15.5-5.7l-4.9-6.8c-3.4,2.7-6.6,4-10.6,4c-8,0-14.8-6.6-14.8-15.3
			C182,66.9,188.8,60.3,196.8,60.3z"/>
		
			<linearGradient id="SVGID_00000183968863445576638090000009499822172426350230_" gradientUnits="userSpaceOnUse" x1="64.6452" y1="75.5773" x2="486.8876" y2="75.5773">
			<stop  offset="3.724372e-02" style="stop-color:#E95351"/>
			<stop  offset="1" style="stop-color:#27284B"/>
		</linearGradient>
		<path style="fill:url(#SVGID_00000183968863445576638090000009499822172426350230_);" d="M196.8,60.3c4,0,7.8,1.6,10.5,3.9l5-6.7
			c-4.1-3.5-9.5-5.7-15.5-5.7c-13.4,0-23.8,10.4-23.8,23.8c0,13.3,10.4,23.8,23.8,23.8c6.1,0,11.5-2.2,15.5-5.7l-4.9-6.8
			c-3.4,2.7-6.6,4-10.6,4c-8,0-14.8-6.6-14.8-15.3C182,66.9,188.8,60.3,196.8,60.3z"/>
		<rect x="220.1" y="64.3" class="st15" width="8.3" height="34.3"/>
		
			<linearGradient id="SVGID_00000038405705415108496410000018289266715570007193_" gradientUnits="userSpaceOnUse" x1="165.5817" y1="81.4176" x2="492.9115" y2="81.4176">
			<stop  offset="3.724372e-02" style="stop-color:#A41077"/>
			<stop  offset="1" style="stop-color:#4E4897"/>
		</linearGradient>
		
			<rect x="220.1" y="64.3" style="fill:url(#SVGID_00000038405705415108496410000018289266715570007193_);" width="8.3" height="34.3"/>
		
			<linearGradient id="SVGID_00000020365477853171413430000004044542357653204876_" gradientUnits="userSpaceOnUse" x1="64.6452" y1="81.4176" x2="486.8876" y2="81.4176">
			<stop  offset="3.724372e-02" style="stop-color:#E95351"/>
			<stop  offset="1" style="stop-color:#27284B"/>
		</linearGradient>
		
			<rect x="220.1" y="64.3" style="fill:url(#SVGID_00000020365477853171413430000004044542357653204876_);" width="8.3" height="34.3"/>
		<path class="st15" d="M224.3,48.4c-3.1,0-5.2,2.5-5.2,5c0,2.5,2.1,5,5.2,5c3.1,0,5.2-2.4,5.2-5C229.5,50.9,227.5,48.4,224.3,48.4z
			"/>
		
			<linearGradient id="SVGID_00000038371066774629731940000014011327194852879744_" gradientUnits="userSpaceOnUse" x1="165.5817" y1="53.4247" x2="492.9115" y2="53.4247">
			<stop  offset="3.724372e-02" style="stop-color:#A41077"/>
			<stop  offset="1" style="stop-color:#4E4897"/>
		</linearGradient>
		<path style="fill:url(#SVGID_00000038371066774629731940000014011327194852879744_);" d="M224.3,48.4c-3.1,0-5.2,2.5-5.2,5
			c0,2.5,2.1,5,5.2,5c3.1,0,5.2-2.4,5.2-5C229.5,50.9,227.5,48.4,224.3,48.4z"/>
		
			<linearGradient id="SVGID_00000016758220014870779830000008263368465811639996_" gradientUnits="userSpaceOnUse" x1="64.6452" y1="53.4247" x2="486.8876" y2="53.4247">
			<stop  offset="3.724372e-02" style="stop-color:#E95351"/>
			<stop  offset="1" style="stop-color:#27284B"/>
		</linearGradient>
		<path style="fill:url(#SVGID_00000016758220014870779830000008263368465811639996_);" d="M224.3,48.4c-3.1,0-5.2,2.5-5.2,5
			c0,2.5,2.1,5,5.2,5c3.1,0,5.2-2.4,5.2-5C229.5,50.9,227.5,48.4,224.3,48.4z"/>
		<polygon class="st15" points="252.8,89.1 244,64.3 234.8,64.3 248.8,98.6 256.9,98.6 270.9,64.3 261.7,64.3 		"/>
		
			<linearGradient id="SVGID_00000094599551729948854280000006769342633626060697_" gradientUnits="userSpaceOnUse" x1="165.5817" y1="81.4176" x2="492.9115" y2="81.4176">
			<stop  offset="3.724372e-02" style="stop-color:#A41077"/>
			<stop  offset="1" style="stop-color:#4E4897"/>
		</linearGradient>
		<polygon style="fill:url(#SVGID_00000094599551729948854280000006769342633626060697_);" points="252.8,89.1 244,64.3 234.8,64.3 
			248.8,98.6 256.9,98.6 270.9,64.3 261.7,64.3 		"/>
		
			<linearGradient id="SVGID_00000036959406284857601490000005193618708793607847_" gradientUnits="userSpaceOnUse" x1="64.6452" y1="81.4176" x2="486.8876" y2="81.4176">
			<stop  offset="3.724372e-02" style="stop-color:#E95351"/>
			<stop  offset="1" style="stop-color:#27284B"/>
		</linearGradient>
		<polygon style="fill:url(#SVGID_00000036959406284857601490000005193618708793607847_);" points="252.8,89.1 244,64.3 234.8,64.3 
			248.8,98.6 256.9,98.6 270.9,64.3 261.7,64.3 		"/>
		<path class="st15" d="M281.5,48.4c-3.1,0-5.2,2.5-5.2,5c0,2.5,2.1,5,5.2,5c3.1,0,5.2-2.4,5.2-5C286.7,50.9,284.6,48.4,281.5,48.4z
			"/>
		
			<linearGradient id="SVGID_00000093167068060052614410000010616342926652208032_" gradientUnits="userSpaceOnUse" x1="165.5817" y1="53.4247" x2="492.9115" y2="53.4247">
			<stop  offset="3.724372e-02" style="stop-color:#A41077"/>
			<stop  offset="1" style="stop-color:#4E4897"/>
		</linearGradient>
		<path style="fill:url(#SVGID_00000093167068060052614410000010616342926652208032_);" d="M281.5,48.4c-3.1,0-5.2,2.5-5.2,5
			c0,2.5,2.1,5,5.2,5c3.1,0,5.2-2.4,5.2-5C286.7,50.9,284.6,48.4,281.5,48.4z"/>
		
			<linearGradient id="SVGID_00000134957166177855618220000016174682016987870896_" gradientUnits="userSpaceOnUse" x1="64.6452" y1="53.4247" x2="486.8876" y2="53.4247">
			<stop  offset="3.724372e-02" style="stop-color:#E95351"/>
			<stop  offset="1" style="stop-color:#27284B"/>
		</linearGradient>
		<path style="fill:url(#SVGID_00000134957166177855618220000016174682016987870896_);" d="M281.5,48.4c-3.1,0-5.2,2.5-5.2,5
			c0,2.5,2.1,5,5.2,5c3.1,0,5.2-2.4,5.2-5C286.7,50.9,284.6,48.4,281.5,48.4z"/>
		<rect x="277.3" y="64.3" class="st15" width="8.3" height="34.3"/>
		
			<linearGradient id="SVGID_00000069383098714064601840000010118516862386845875_" gradientUnits="userSpaceOnUse" x1="165.5817" y1="81.4176" x2="492.9115" y2="81.4176">
			<stop  offset="3.724372e-02" style="stop-color:#A41077"/>
			<stop  offset="1" style="stop-color:#4E4897"/>
		</linearGradient>
		
			<rect x="277.3" y="64.3" style="fill:url(#SVGID_00000069383098714064601840000010118516862386845875_);" width="8.3" height="34.3"/>
		
			<linearGradient id="SVGID_00000178910160104652662580000002436895130562261153_" gradientUnits="userSpaceOnUse" x1="64.6452" y1="81.4176" x2="486.8876" y2="81.4176">
			<stop  offset="3.724372e-02" style="stop-color:#E95351"/>
			<stop  offset="1" style="stop-color:#27284B"/>
		</linearGradient>
		
			<rect x="277.3" y="64.3" style="fill:url(#SVGID_00000178910160104652662580000002436895130562261153_);" width="8.3" height="34.3"/>
		<path class="st15" d="M312.2,71.2c3.2,0,5.7,1.2,7.9,3.1l4.2-6c-3.1-2.8-7.4-4.7-12.5-4.7c-10.2,0-17.9,8.1-17.9,18
			c0,9.8,7.6,18,17.9,18c5,0,9.4-1.9,12.5-4.7l-4.2-6c-2.2,1.8-4.6,3-7.9,3c-5.4,0-10-4.4-10-10.3C302.2,75.6,306.8,71.2,312.2,71.2
			z"/>
		
			<linearGradient id="SVGID_00000039128185962778359340000010377700461620357553_" gradientUnits="userSpaceOnUse" x1="165.5817" y1="81.5325" x2="492.9115" y2="81.5325">
			<stop  offset="3.724372e-02" style="stop-color:#A41077"/>
			<stop  offset="1" style="stop-color:#4E4897"/>
		</linearGradient>
		<path style="fill:url(#SVGID_00000039128185962778359340000010377700461620357553_);" d="M312.2,71.2c3.2,0,5.7,1.2,7.9,3.1l4.2-6
			c-3.1-2.8-7.4-4.7-12.5-4.7c-10.2,0-17.9,8.1-17.9,18c0,9.8,7.6,18,17.9,18c5,0,9.4-1.9,12.5-4.7l-4.2-6c-2.2,1.8-4.6,3-7.9,3
			c-5.4,0-10-4.4-10-10.3C302.2,75.6,306.8,71.2,312.2,71.2z"/>
		
			<linearGradient id="SVGID_00000178194198765037574540000001721833673415377849_" gradientUnits="userSpaceOnUse" x1="64.6452" y1="81.5325" x2="486.8876" y2="81.5325">
			<stop  offset="3.724372e-02" style="stop-color:#E95351"/>
			<stop  offset="1" style="stop-color:#27284B"/>
		</linearGradient>
		<path style="fill:url(#SVGID_00000178194198765037574540000001721833673415377849_);" d="M312.2,71.2c3.2,0,5.7,1.2,7.9,3.1l4.2-6
			c-3.1-2.8-7.4-4.7-12.5-4.7c-10.2,0-17.9,8.1-17.9,18c0,9.8,7.6,18,17.9,18c5,0,9.4-1.9,12.5-4.7l-4.2-6c-2.2,1.8-4.6,3-7.9,3
			c-5.4,0-10-4.4-10-10.3C302.2,75.6,306.8,71.2,312.2,71.2z"/>
		<path class="st11" d="M349.8,63.5c-4.3,0-7.6,1.7-10,4.2V50.3h-8.4v48.3h7.3l0.6-4c2.5,2.9,6,4.8,10.5,4.8c9.5,0,17.2-8,17.2-17.9
			C367,71.5,359.2,63.5,349.8,63.5z M349,91.5c-5.5,0-9.8-4.2-9.8-10c0-5.8,4.4-10.1,9.8-10.1c5.4,0,9.7,4.3,9.7,10.1
			C358.7,87.3,354.5,91.5,349,91.5z"/>
		
			<linearGradient id="SVGID_00000091733486664850999290000009145103523730127800_" gradientUnits="userSpaceOnUse" x1="165.5817" y1="74.8573" x2="492.9115" y2="74.8573">
			<stop  offset="3.724372e-02" style="stop-color:#A41077"/>
			<stop  offset="1" style="stop-color:#4E4897"/>
		</linearGradient>
		<path style="fill:url(#SVGID_00000091733486664850999290000009145103523730127800_);" d="M349.8,63.5c-4.3,0-7.6,1.7-10,4.2V50.3
			h-8.4v48.3h7.3l0.6-4c2.5,2.9,6,4.8,10.5,4.8c9.5,0,17.2-8,17.2-17.9C367,71.5,359.2,63.5,349.8,63.5z M349,91.5
			c-5.5,0-9.8-4.2-9.8-10c0-5.8,4.4-10.1,9.8-10.1c5.4,0,9.7,4.3,9.7,10.1C358.7,87.3,354.5,91.5,349,91.5z"/>
		
			<linearGradient id="SVGID_00000145749455390845017180000018360765296104073906_" gradientUnits="userSpaceOnUse" x1="64.6452" y1="74.8573" x2="486.8876" y2="74.8573">
			<stop  offset="3.724372e-02" style="stop-color:#E95351"/>
			<stop  offset="1" style="stop-color:#27284B"/>
		</linearGradient>
		<path style="fill:url(#SVGID_00000145749455390845017180000018360765296104073906_);" d="M349.8,63.5c-4.3,0-7.6,1.7-10,4.2V50.3
			h-8.4v48.3h7.3l0.6-4c2.5,2.9,6,4.8,10.5,4.8c9.5,0,17.2-8,17.2-17.9C367,71.5,359.2,63.5,349.8,63.5z M349,91.5
			c-5.5,0-9.8-4.2-9.8-10c0-5.8,4.4-10.1,9.8-10.1c5.4,0,9.7,4.3,9.7,10.1C358.7,87.3,354.5,91.5,349,91.5z"/>
		<path class="st11" d="M401,68.4c-2.5-2.9-6-4.9-10.6-4.9c-9.4,0-17.2,8-17.2,17.9c0,10,7.8,17.9,17.2,17.9c4.5,0,8-2,10.5-4.8
			l0.6,4h7.3V64.3h-7.3L401,68.4z M391.1,91.5c-5.5,0-9.7-4.2-9.7-10c0-5.8,4.3-10.1,9.7-10.1c5.5,0,9.8,4.3,9.8,10.1
			C400.9,87.3,396.5,91.5,391.1,91.5z"/>
		
			<linearGradient id="SVGID_00000080165444384048803440000002822722596861967800_" gradientUnits="userSpaceOnUse" x1="165.5817" y1="81.4669" x2="492.9115" y2="81.4669">
			<stop  offset="3.724372e-02" style="stop-color:#A41077"/>
			<stop  offset="1" style="stop-color:#4E4897"/>
		</linearGradient>
		<path style="fill:url(#SVGID_00000080165444384048803440000002822722596861967800_);" d="M401,68.4c-2.5-2.9-6-4.9-10.6-4.9
			c-9.4,0-17.2,8-17.2,17.9c0,10,7.8,17.9,17.2,17.9c4.5,0,8-2,10.5-4.8l0.6,4h7.3V64.3h-7.3L401,68.4z M391.1,91.5
			c-5.5,0-9.7-4.2-9.7-10c0-5.8,4.3-10.1,9.7-10.1c5.5,0,9.8,4.3,9.8,10.1C400.9,87.3,396.5,91.5,391.1,91.5z"/>
		
			<linearGradient id="SVGID_00000129167371282298658340000016550342500146157705_" gradientUnits="userSpaceOnUse" x1="64.6452" y1="81.4669" x2="486.8876" y2="81.4669">
			<stop  offset="3.724372e-02" style="stop-color:#E95351"/>
			<stop  offset="1" style="stop-color:#27284B"/>
		</linearGradient>
		<path style="fill:url(#SVGID_00000129167371282298658340000016550342500146157705_);" d="M401,68.4c-2.5-2.9-6-4.9-10.6-4.9
			c-9.4,0-17.2,8-17.2,17.9c0,10,7.8,17.9,17.2,17.9c4.5,0,8-2,10.5-4.8l0.6,4h7.3V64.3h-7.3L401,68.4z M391.1,91.5
			c-5.5,0-9.7-4.2-9.7-10c0-5.8,4.3-10.1,9.7-10.1c5.5,0,9.8,4.3,9.8,10.1C400.9,87.3,396.5,91.5,391.1,91.5z"/>
		<path class="st11" d="M432.9,78.1c-5.4-1.4-7-2.4-7-4.3c0-1.8,1.6-2.9,5-2.9c3.1,0,6.9,1.4,9.2,2.9l4-6c-3.7-2.7-8.6-4.3-12.9-4.3
			c-8.8,0-13.7,4.6-13.7,10.2c0,5.8,5,9,11.2,10.5c5.6,1.4,7.7,2.5,7.7,4.6c0,2.2-2.2,3.4-5.4,3.4c-4.1,0-8.4-1.8-11.2-3.8l-4,5.9
			c4,3.1,9.2,5.2,15.4,5.2c8.1,0,13.6-4.5,13.6-10.7C444.8,82.4,439.8,79.8,432.9,78.1z"/>
		
			<linearGradient id="SVGID_00000030467682515201700600000000238110775929428101_" gradientUnits="userSpaceOnUse" x1="165.5817" y1="81.499" x2="492.9115" y2="81.499">
			<stop  offset="3.724372e-02" style="stop-color:#A41077"/>
			<stop  offset="1" style="stop-color:#4E4897"/>
		</linearGradient>
		<path style="fill:url(#SVGID_00000030467682515201700600000000238110775929428101_);" d="M432.9,78.1c-5.4-1.4-7-2.4-7-4.3
			c0-1.8,1.6-2.9,5-2.9c3.1,0,6.9,1.4,9.2,2.9l4-6c-3.7-2.7-8.6-4.3-12.9-4.3c-8.8,0-13.7,4.6-13.7,10.2c0,5.8,5,9,11.2,10.5
			c5.6,1.4,7.7,2.5,7.7,4.6c0,2.2-2.2,3.4-5.4,3.4c-4.1,0-8.4-1.8-11.2-3.8l-4,5.9c4,3.1,9.2,5.2,15.4,5.2c8.1,0,13.6-4.5,13.6-10.7
			C444.8,82.4,439.8,79.8,432.9,78.1z"/>
		
			<linearGradient id="SVGID_00000044889561771349134130000000459240227452246702_" gradientUnits="userSpaceOnUse" x1="64.6452" y1="81.499" x2="486.8876" y2="81.499">
			<stop  offset="3.724372e-02" style="stop-color:#E95351"/>
			<stop  offset="1" style="stop-color:#27284B"/>
		</linearGradient>
		<path style="fill:url(#SVGID_00000044889561771349134130000000459240227452246702_);" d="M432.9,78.1c-5.4-1.4-7-2.4-7-4.3
			c0-1.8,1.6-2.9,5-2.9c3.1,0,6.9,1.4,9.2,2.9l4-6c-3.7-2.7-8.6-4.3-12.9-4.3c-8.8,0-13.7,4.6-13.7,10.2c0,5.8,5,9,11.2,10.5
			c5.6,1.4,7.7,2.5,7.7,4.6c0,2.2-2.2,3.4-5.4,3.4c-4.1,0-8.4-1.8-11.2-3.8l-4,5.9c4,3.1,9.2,5.2,15.4,5.2c8.1,0,13.6-4.5,13.6-10.7
			C444.8,82.4,439.8,79.8,432.9,78.1z"/>
		<path class="st11" d="M466.6,63.6c-9.8,0-16.8,8-16.8,18c0,9.8,7.5,17.9,17.7,17.9c5.2,0,9.5-1.8,12.6-4.7l-4-5.8
			c-2.1,1.9-4.8,3.1-8.1,3.1c-4.8,0-8.8-2.9-9.9-7.9h25.3c0.2-1.1,0.2-2,0.2-2.9C483.6,71,477.4,63.6,466.6,63.6z M458.2,77.9
			c1.1-4.5,4.5-7.1,8.8-7.1c4.5,0,7.5,2.6,8.5,7.1H458.2z"/>
		
			<linearGradient id="SVGID_00000165218416788518149960000011859968711978488501_" gradientUnits="userSpaceOnUse" x1="165.5817" y1="81.532" x2="492.9115" y2="81.532">
			<stop  offset="3.724372e-02" style="stop-color:#A41077"/>
			<stop  offset="1" style="stop-color:#4E4897"/>
		</linearGradient>
		<path style="fill:url(#SVGID_00000165218416788518149960000011859968711978488501_);" d="M466.6,63.6c-9.8,0-16.8,8-16.8,18
			c0,9.8,7.5,17.9,17.7,17.9c5.2,0,9.5-1.8,12.6-4.7l-4-5.8c-2.1,1.9-4.8,3.1-8.1,3.1c-4.8,0-8.8-2.9-9.9-7.9h25.3
			c0.2-1.1,0.2-2,0.2-2.9C483.6,71,477.4,63.6,466.6,63.6z M458.2,77.9c1.1-4.5,4.5-7.1,8.8-7.1c4.5,0,7.5,2.6,8.5,7.1H458.2z"/>
		
			<linearGradient id="SVGID_00000116216357097440795760000007321346541000126142_" gradientUnits="userSpaceOnUse" x1="64.6452" y1="81.532" x2="486.8876" y2="81.532">
			<stop  offset="3.724372e-02" style="stop-color:#E95351"/>
			<stop  offset="1" style="stop-color:#27284B"/>
		</linearGradient>
		<path style="fill:url(#SVGID_00000116216357097440795760000007321346541000126142_);" d="M466.6,63.6c-9.8,0-16.8,8-16.8,18
			c0,9.8,7.5,17.9,17.7,17.9c5.2,0,9.5-1.8,12.6-4.7l-4-5.8c-2.1,1.9-4.8,3.1-8.1,3.1c-4.8,0-8.8-2.9-9.9-7.9h25.3
			c0.2-1.1,0.2-2,0.2-2.9C483.6,71,477.4,63.6,466.6,63.6z M458.2,77.9c1.1-4.5,4.5-7.1,8.8-7.1c4.5,0,7.5,2.6,8.5,7.1H458.2z"/>
	</g>
	<g>
		
			<linearGradient id="SVGID_00000129902531067336382330000006315859131512290743_" gradientUnits="userSpaceOnUse" x1="80.0569" y1="70.7174" x2="134.2009" y2="70.7174">
			<stop  offset="3.724372e-02" style="stop-color:#E95351"/>
			<stop  offset="1" style="stop-color:#27284B"/>
		</linearGradient>
		<path style="fill:url(#SVGID_00000129902531067336382330000006315859131512290743_);" d="M134.2,78.2c0-9.3,0-18.6,0-27.9
			c0-2.2,0.1-4.3,0-6.5c-0.1-3.7-3.1-6.4-6.7-6.2c-0.8,0-1.7,0.3-2.5,0.6c-11.9,4.1-23.8,8.2-35.7,12.3c-5.9,2-9.1,6.5-9.1,12.8
			c0,5.5,0,10.9,0,16.4c0,5.8,0,11.7,0,17.5c0,3.1,1.8,5.5,4.6,6.3c1.5,0.4,3,0.3,4.5-0.2c12.1-4.2,24.1-8.3,36.2-12.5
			C131,88.8,134.2,84.3,134.2,78.2z"/>
		
			<linearGradient id="SVGID_00000049184168994109687660000010042715268065269173_" gradientUnits="userSpaceOnUse" x1="78.6081" y1="70.7174" x2="150.9624" y2="70.7174">
			<stop  offset="3.724372e-02" style="stop-color:#E95351"/>
			<stop  offset="1" style="stop-color:#27284B"/>
		</linearGradient>
		<path style="fill:url(#SVGID_00000049184168994109687660000010042715268065269173_);" d="M134.2,78.2c0-9.3,0-18.6,0-27.9
			c0-2.2,0.1-4.3,0-6.5c-0.1-3.7-3.1-6.4-6.7-6.2c-0.8,0-1.7,0.3-2.5,0.6c-11.9,4.1-23.8,8.2-35.7,12.3c-5.9,2-9.1,6.5-9.1,12.8
			c0,5.5,0,10.9,0,16.4c0,5.8,0,11.7,0,17.5c0,3.1,1.8,5.5,4.6,6.3c1.5,0.4,3,0.3,4.5-0.2c12.1-4.2,24.1-8.3,36.2-12.5
			C131,88.8,134.2,84.3,134.2,78.2z"/>
		
			<linearGradient id="SVGID_00000076594823206419361330000012818941656097239197_" gradientUnits="userSpaceOnUse" x1="157.2013" y1="70.7174" x2="72.8581" y2="70.7174">
			<stop  offset="3.724372e-02" style="stop-color:#E95351"/>
			<stop  offset="1" style="stop-color:#27284B"/>
		</linearGradient>
		<path style="fill:url(#SVGID_00000076594823206419361330000012818941656097239197_);" d="M134.2,78.2c0-9.3,0-18.6,0-27.9
			c0-2.2,0.1-4.3,0-6.5c-0.1-3.7-3.1-6.4-6.7-6.2c-0.8,0-1.7,0.3-2.5,0.6c-11.9,4.1-23.8,8.2-35.7,12.3c-5.9,2-9.1,6.5-9.1,12.8
			c0,5.5,0,10.9,0,16.4c0,5.8,0,11.7,0,17.5c0,3.1,1.8,5.5,4.6,6.3c1.5,0.4,3,0.3,4.5-0.2c12.1-4.2,24.1-8.3,36.2-12.5
			C131,88.8,134.2,84.3,134.2,78.2z"/>
		<path class="st3" d="M142.1,51.3c-0.7,0-1.5,0.2-2.2,0.5c-0.8,0.3-1.5,0.5-2.3,0.8v5.5c0,6.7,0,13.4,0,20.1
			c0,7.6-4.1,13.4-11.2,15.9c-7.4,2.6-15,5.2-22.3,7.7c-0.8,0.3-1.6,0.6-2.4,0.8c0.2,2.4,1.6,4.3,3.9,5c1.3,0.4,2.6,0.2,3.8-0.2
			c10.3-3.6,20.6-7.1,30.9-10.7c4.9-1.7,7.6-5.5,7.6-10.7c0-7.9,0-15.9,0-23.8c0-1.8,0-3.7,0-5.5C147.8,53.5,145.3,51.2,142.1,51.3z
			"/>
		
			<linearGradient id="SVGID_00000152959264621829247210000005853920190070170303_" gradientUnits="userSpaceOnUse" x1="78.6081" y1="79.5633" x2="150.9624" y2="79.5633">
			<stop  offset="3.724372e-02" style="stop-color:#E95351"/>
			<stop  offset="1" style="stop-color:#27284B"/>
		</linearGradient>
		<path style="fill:url(#SVGID_00000152959264621829247210000005853920190070170303_);" d="M142.1,51.3c-0.7,0-1.5,0.2-2.2,0.5
			c-0.8,0.3-1.5,0.5-2.3,0.8v5.5c0,6.7,0,13.4,0,20.1c0,7.6-4.1,13.4-11.2,15.9c-7.4,2.6-15,5.2-22.3,7.7c-0.8,0.3-1.6,0.6-2.4,0.8
			c0.2,2.4,1.6,4.3,3.9,5c1.3,0.4,2.6,0.2,3.8-0.2c10.3-3.6,20.6-7.1,30.9-10.7c4.9-1.7,7.6-5.5,7.6-10.7c0-7.9,0-15.9,0-23.8
			c0-1.8,0-3.7,0-5.5C147.8,53.5,145.3,51.2,142.1,51.3z"/>
		
			<linearGradient id="SVGID_00000183230781399743525550000017959874900939528885_" gradientUnits="userSpaceOnUse" x1="157.2013" y1="79.5633" x2="72.8581" y2="79.5633">
			<stop  offset="3.724372e-02" style="stop-color:#E95351"/>
			<stop  offset="1" style="stop-color:#27284B"/>
		</linearGradient>
		<path style="fill:url(#SVGID_00000183230781399743525550000017959874900939528885_);" d="M142.1,51.3c-0.7,0-1.5,0.2-2.2,0.5
			c-0.8,0.3-1.5,0.5-2.3,0.8v5.5c0,6.7,0,13.4,0,20.1c0,7.6-4.1,13.4-11.2,15.9c-7.4,2.6-15,5.2-22.3,7.7c-0.8,0.3-1.6,0.6-2.4,0.8
			c0.2,2.4,1.6,4.3,3.9,5c1.3,0.4,2.6,0.2,3.8-0.2c10.3-3.6,20.6-7.1,30.9-10.7c4.9-1.7,7.6-5.5,7.6-10.7c0-7.9,0-15.9,0-23.8
			c0-1.8,0-3.7,0-5.5C147.8,53.5,145.3,51.2,142.1,51.3z"/>
	</g>
</g>
</svg>
